<?xml version="1.0" encoding="UTF-8" standalone="no"?>
<svg width="34px" height="21px" viewBox="0 0 34 21" version="1.1" xmlns="http://www.w3.org/2000/svg" xmlns:xlink="http://www.w3.org/1999/xlink" xmlns:sketch="http://www.bohemiancoding.com/sketch/ns">
    <!-- Generator: Sketch 3.3.3 (12072) - http://www.bohemiancoding.com/sketch -->
    <title>Fill 35</title>
    <desc>Created with Sketch.</desc>
    <defs></defs>
    <g id="Page-1" stroke="none" stroke-width="1" fill="none" fill-rule="evenodd" sketch:type="MSPage">
        <path d="M0.359083987,4.29700448 L15.9979955,19.9332363 C16.1775375,20.1744121 16.4803471,20.295 16.7188432,20.295 C17.0216529,20.295 17.3217828,20.1744121 17.5013247,19.9332363 L33.1402363,4.29700448 C33.3814121,4.05582867 33.502,3.81465286 33.502,3.51452296 C33.502,3.27334714 33.3814121,2.97321725 33.1402363,2.73204143 L31.4573651,1.1081243 C31.2751433,0.866948488 30.9750134,0.746360582 30.7338376,0.746360582 C30.4337077,0.746360582 30.1335778,0.866948488 29.9540358,1.1081243 L16.7188432,14.2816831 L3.54796417,1.1081243 C3.30678835,0.866948488 3.06561254,0.746360582 2.76548264,0.746360582 C2.46535274,0.746360582 2.22417693,0.866948488 1.98300112,1.1081243 L0.359083987,2.73204143 C0.117908175,2.97321725 0,3.27334714 0,3.51452296 C0,3.81465286 0.117908175,4.05582867 0.359083987,4.29700448" id="Fill-35" fill="#CCCCCC" sketch:type="MSShapeGroup"></path>
    </g>
</svg>